<svg width="30" height="30" viewBox="0 0 30 30" fill="none" xmlns="http://www.w3.org/2000/svg">
<path d="M16.8162 10.4962C18.9762 8.65999 20.675 6.48374 21.4062 4.30999L21.4187 4.27124C23.2462 5.36291 24.7633 6.90493 25.825 8.74999C26.8918 10.591 27.4686 12.6749 27.5 14.8025C25.0062 14.2637 22.2675 14.6775 19.68 15.6525C19.28 14.5725 18.8237 13.5425 18.3125 12.6562C17.8686 11.8998 17.3684 11.1777 16.8162 10.4962Z" fill="#713EA2"/>
<path fillRule="evenodd" clipRule="evenodd" d="M4.17503 21.25C5.23629 23.0954 6.75344 24.6375 8.58128 25.7287V25.7262C9.60378 22.6412 12.5813 19.545 16.0713 17.4212C16.6796 17.0504 17.3079 16.7079 17.9563 16.3937C17.5788 15.365 17.1563 14.4025 16.6888 13.5937C16.2859 12.9134 15.8338 12.2633 15.3363 11.6487C14.9038 11.9587 14.4604 12.2529 14.0063 12.5312C10.56 14.6475 6.36628 15.96 2.68003 15.2337L2.49878 15.1987C2.53117 17.3254 3.10784 19.4083 4.17378 21.2487" fill="#713EA2"/>
<path opacity="0.5" d="M20.2825 17.4287C22.6413 16.5287 25.0463 16.1837 27.1288 16.6412L27.3838 16.6975C27.2327 17.8031 26.9342 18.8836 26.4963 19.91C25.5671 22.0938 24.0326 23.9663 22.0738 25.3062L22.0575 25.2075C21.8212 23.7423 21.5348 22.2856 21.1988 20.84C20.9337 19.692 20.628 18.5551 20.2825 17.4287ZM10.3988 4.31749C10.1509 4.12103 9.90086 3.92727 9.64877 3.73624L9.62002 3.71624C11.7575 2.69314 14.1427 2.30195 16.495 2.58874C17.6038 2.72249 18.6913 3.00499 19.725 3.42624L19.6288 3.71249C19.0325 5.48499 17.5663 7.39999 15.5938 9.07499C14.7198 8.13124 13.8008 7.23019 12.84 6.37499C12.0477 5.66416 11.234 4.97759 10.4 4.31624M13.025 10.9337C9.79252 12.9187 6.08752 13.995 3.04127 13.395L2.61377 13.31C2.84719 11.5976 3.43314 9.95231 4.33462 8.47788C5.23611 7.00345 6.43353 5.73197 7.85127 4.74374L8.26127 5.04249L8.26377 5.04374L8.27627 5.05249L8.32502 5.08874L8.51752 5.23249C9.57415 6.03721 10.5983 6.88372 11.5875 7.76999C12.4125 8.50999 13.285 9.34499 14.1038 10.2262C13.7538 10.4704 13.3942 10.7062 13.025 10.9337ZM20.2563 25.8287L20.2588 25.8437V25.8487L20.325 26.31C18.7593 27.047 17.0575 27.4509 15.3276 27.4961C13.5976 27.5413 11.8771 27.2268 10.275 26.5725L10.3613 26.3175C11.19 23.815 13.7613 21.0212 17.0463 19.0225C17.5396 18.7225 18.0421 18.4446 18.5538 18.1887C18.8688 19.2262 19.1425 20.2775 19.3725 21.2662C19.7175 22.754 20.009 24.2538 20.2463 25.7625L20.2563 25.8287Z" fill="#713EA2"/>
</svg>
