<svg width="30" height="30" viewBox="0 0 30 30" fill="none" xmlns="http://www.w3.org/2000/svg">
<path fillRule="evenodd" clipRule="evenodd" d="M18.685 1.5625H21.315C22.4387 1.5625 23.375 1.5625 24.1175 1.6625C24.9025 1.7675 25.6112 2 26.18 2.56875C26.75 3.13875 26.9825 3.8475 27.0875 4.63125C27.1875 5.375 27.1875 6.3125 27.1875 7.435V26.5625H27.5C27.7486 26.5625 27.9871 26.6613 28.1629 26.8371C28.3387 27.0129 28.4375 27.2514 28.4375 27.5C28.4375 27.7486 28.3387 27.9871 28.1629 28.1629C27.9871 28.3387 27.7486 28.4375 27.5 28.4375H2.5C2.25136 28.4375 2.0129 28.3387 1.83709 28.1629C1.66127 27.9871 1.5625 27.7486 1.5625 27.5C1.5625 27.2514 1.66127 27.0129 1.83709 26.8371C2.0129 26.6613 2.25136 26.5625 2.5 26.5625H2.8125V11.185C2.8125 10.0625 2.8125 9.125 2.9125 8.3825C3.0175 7.5975 3.25 6.88875 3.81875 6.32C4.38875 5.75 5.0975 5.5175 5.88125 5.4125C6.625 5.3125 7.5625 5.3125 8.685 5.3125H12.8475C12.9113 4.22 13.1138 3.275 13.8188 2.56875C14.3888 2 15.0975 1.76875 15.8813 1.6625C16.625 1.5625 17.5625 1.5625 18.685 1.5625ZM13.7587 7.1875H8.75C7.545 7.1875 6.735 7.19 6.13125 7.27125C5.555 7.34875 5.3075 7.4825 5.145 7.64625C4.9825 7.81 4.84875 8.055 4.77 8.63125C4.69125 9.235 4.6875 10.045 4.6875 11.25V26.5625H10.3125V23.75C10.3125 23.5014 10.4113 23.2629 10.5871 23.0871C10.7629 22.9113 11.0014 22.8125 11.25 22.8125C11.4986 22.8125 11.7371 22.9113 11.9129 23.0871C12.0887 23.2629 12.1875 23.5014 12.1875 23.75V26.5625H17.8125V11.25C17.8125 10.045 17.81 9.235 17.73 8.63125C17.6513 8.055 17.5175 7.8075 17.355 7.645C17.1925 7.4825 16.945 7.34875 16.3675 7.27C15.7662 7.19 14.9587 7.1875 13.7587 7.1875ZM19.6875 26.5625V11.185C19.6875 10.0625 19.6875 9.125 19.5875 8.3825C19.4825 7.5975 19.25 6.88875 18.68 6.32C18.1112 5.75 17.4025 5.5175 16.6175 5.4125C16.0862 5.34125 15.455 5.32 14.73 5.315C14.7925 4.44 14.93 4.11125 15.145 3.895C15.3075 3.7325 15.555 3.59875 16.1325 3.52C16.735 3.44 17.545 3.4375 18.75 3.4375H21.25C22.455 3.4375 23.265 3.44 23.8687 3.52125C24.445 3.59875 24.6925 3.7325 24.855 3.89625C25.0175 4.06 25.1513 4.305 25.23 4.88125C25.31 5.485 25.3125 6.295 25.3125 7.5V26.5625H19.6875ZM6.5625 10C6.5625 9.75136 6.66127 9.5129 6.83709 9.33709C7.0129 9.16127 7.25136 9.0625 7.5 9.0625H15C15.2486 9.0625 15.4871 9.16127 15.6629 9.33709C15.8387 9.5129 15.9375 9.75136 15.9375 10C15.9375 10.2486 15.8387 10.4871 15.6629 10.6629C15.4871 10.8387 15.2486 10.9375 15 10.9375H7.5C7.25136 10.9375 7.0129 10.8387 6.83709 10.6629C6.66127 10.4871 6.5625 10.2486 6.5625 10ZM6.5625 13.75C6.5625 13.5014 6.66127 13.2629 6.83709 13.0871C7.0129 12.9113 7.25136 12.8125 7.5 12.8125H15C15.2486 12.8125 15.4871 12.9113 15.6629 13.0871C15.8387 13.2629 15.9375 13.5014 15.9375 13.75C15.9375 13.9986 15.8387 14.2371 15.6629 14.4129C15.4871 14.5887 15.2486 14.6875 15 14.6875H7.5C7.25136 14.6875 7.0129 14.5887 6.83709 14.4129C6.66127 14.2371 6.5625 13.9986 6.5625 13.75ZM6.5625 17.5C6.5625 17.2514 6.66127 17.0129 6.83709 16.8371C7.0129 16.6613 7.25136 16.5625 7.5 16.5625H15C15.2486 16.5625 15.4871 16.6613 15.6629 16.8371C15.8387 17.0129 15.9375 17.2514 15.9375 17.5C15.9375 17.7486 15.8387 17.9871 15.6629 18.1629C15.4871 18.3387 15.2486 18.4375 15 18.4375H7.5C7.25136 18.4375 7.0129 18.3387 6.83709 18.1629C6.66127 17.9871 6.5625 17.7486 6.5625 17.5Z" fill="#713EA2"/>
</svg>
