<svg width="30" height="30" viewBox="0 0 30 30" fill="none" xmlns="http://www.w3.org/2000/svg">
<path fillRule="evenodd" clipRule="evenodd" d="M7.07251 4.3175C7.70501 4.0925 8.34751 4.0625 8.87876 4.0625H9.64376C10.935 4.0625 12.1938 4.4625 13.2475 5.20875L13.875 5.6525C14.2041 5.88494 14.5971 6.00974 15 6.00974C15.4029 6.00974 15.7959 5.88494 16.125 5.6525L16.7525 5.20875C17.8066 4.4637 19.0655 4.06328 20.3563 4.0625H21.1213C21.6538 4.0625 22.2963 4.0925 22.9275 4.3175C24.7313 4.9575 26.1575 6.4275 27.0975 8.80625C28.0275 11.1613 28.505 14.4563 28.43 18.8937C28.4138 19.8312 28.2975 20.8813 27.9363 21.8263C27.5725 22.785 26.9338 23.6887 25.8613 24.2013C25.1919 24.5225 24.4587 24.6888 23.7163 24.6875C22.8559 24.698 22.0115 24.4545 21.2888 23.9875C20.6988 23.6 20.1825 23.1 19.7413 22.6725L19.5825 22.52C19.0775 22.0325 18.6513 21.6537 18.1788 21.4075C17.5826 21.099 16.9213 20.9378 16.25 20.9375H13.75C13.0783 20.938 12.4164 21.0996 11.82 21.4088C11.3475 21.6538 10.9213 22.0338 10.4163 22.5212L10.2575 22.6737C9.81626 23.1 9.30001 23.6012 8.71001 23.9888C7.98715 24.4553 7.14278 24.6983 6.28251 24.6875C5.53995 24.6884 4.80676 24.5217 4.13751 24.2C3.06376 23.6875 2.42626 22.785 2.06251 21.8263C1.70126 20.8813 1.58501 19.8312 1.56876 18.8937C1.49376 14.4563 1.97126 11.1613 2.90126 8.80625C3.84126 6.4275 5.26876 4.95625 7.07251 4.3175ZM8.87876 5.9375C8.39876 5.9375 8.02001 5.97125 7.70001 6.08375C6.52501 6.50125 5.43876 7.49 4.64626 9.49625C3.84501 11.525 3.37126 14.5413 3.44501 18.8625C3.45876 19.69 3.56376 20.4975 3.81501 21.1588C4.06251 21.8088 4.42751 22.2612 4.94751 22.5088C5.36412 22.71 5.82107 22.8139 6.28376 22.8125C6.89001 22.8125 7.34376 22.6425 7.68376 22.42C8.11501 22.1363 8.50001 21.7663 8.96126 21.32L9.11626 21.17C9.61751 20.6875 10.2163 20.1275 10.9575 19.745C11.8207 19.2972 12.7788 19.0631 13.7513 19.0625H16.25C17.2225 19.0625 18.18 19.2963 19.0438 19.7437C19.7838 20.1275 20.3838 20.6875 20.885 21.1687L21.04 21.3188C21.5025 21.7663 21.8863 22.1362 22.3188 22.4187C22.6575 22.6425 23.1113 22.8125 23.7188 22.8125C24.2275 22.8125 24.6713 22.6925 25.0538 22.51C25.5738 22.26 25.9388 21.8088 26.1863 21.16C26.4375 20.4975 26.5425 19.69 26.5563 18.8625C26.6288 14.5413 26.1563 11.525 25.355 9.495C24.5625 7.49 23.4763 6.50125 22.3013 6.08375C21.9813 5.97125 21.6013 5.9375 21.1225 5.9375H20.3575C19.455 5.9375 18.5738 6.2175 17.8363 6.73875L17.2088 7.18375C16.5631 7.64004 15.7919 7.88504 15.0013 7.88504C14.2106 7.88504 13.4394 7.64004 12.7938 7.18375L12.1663 6.73875C11.4287 6.21788 10.548 5.938 9.64501 5.9375H8.87876ZM9.37501 10.3125C9.62365 10.3125 9.86211 10.4113 10.0379 10.5871C10.2137 10.7629 10.3125 11.0014 10.3125 11.25V12.1875H11.25C11.4987 12.1875 11.7371 12.2863 11.9129 12.4621C12.0887 12.6379 12.1875 12.8764 12.1875 13.125C12.1875 13.3736 12.0887 13.6121 11.9129 13.7879C11.7371 13.9637 11.4987 14.0625 11.25 14.0625H10.3125V15C10.3125 15.2486 10.2137 15.4871 10.0379 15.6629C9.86211 15.8387 9.62365 15.9375 9.37501 15.9375C9.12637 15.9375 8.88792 15.8387 8.7121 15.6629C8.53629 15.4871 8.43751 15.2486 8.43751 15V14.0625H7.50001C7.25137 14.0625 7.01292 13.9637 6.8371 13.7879C6.66129 13.6121 6.56251 13.3736 6.56251 13.125C6.56251 12.8764 6.66129 12.6379 6.8371 12.4621C7.01292 12.2863 7.25137 12.1875 7.50001 12.1875H8.43751V11.25C8.43751 11.0014 8.53629 10.7629 8.7121 10.5871C8.88792 10.4113 9.12637 10.3125 9.37501 10.3125Z" fill="#713EA2"/>
<path d="M23.75 12.8125C23.75 13.0611 23.6512 13.2996 23.4754 13.4754C23.2996 13.6512 23.0611 13.75 22.8125 13.75C22.5639 13.75 22.3254 13.6512 22.1496 13.4754C21.9738 13.2996 21.875 13.0611 21.875 12.8125C21.875 12.5639 21.9738 12.3254 22.1496 12.1496C22.3254 11.9738 22.5639 11.875 22.8125 11.875C23.0611 11.875 23.2996 11.9738 23.4754 12.1496C23.6512 12.3254 23.75 12.5639 23.75 12.8125ZM20 12.8125C20 13.0611 19.9012 13.2996 19.7254 13.4754C19.5496 13.6512 19.3111 13.75 19.0625 13.75C18.8139 13.75 18.5754 13.6512 18.3996 13.4754C18.2238 13.2996 18.125 13.0611 18.125 12.8125C18.125 12.5639 18.2238 12.3254 18.3996 12.1496C18.5754 11.9738 18.8139 11.875 19.0625 11.875C19.3111 11.875 19.5496 11.9738 19.7254 12.1496C19.9012 12.3254 20 12.5639 20 12.8125ZM20.9375 10C21.1861 10 21.4246 10.0988 21.6004 10.2746C21.7762 10.4504 21.875 10.6889 21.875 10.9375C21.875 11.1861 21.7762 11.4246 21.6004 11.6004C21.4246 11.7762 21.1861 11.875 20.9375 11.875C20.6889 11.875 20.4504 11.7762 20.2746 11.6004C20.0988 11.4246 20 11.1861 20 10.9375C20 10.6889 20.0988 10.4504 20.2746 10.2746C20.4504 10.0988 20.6889 10 20.9375 10ZM20.9375 13.75C21.0606 13.75 21.1825 13.7742 21.2963 13.8214C21.41 13.8685 21.5134 13.9375 21.6004 14.0246C21.6875 14.1116 21.7565 14.215 21.8036 14.3287C21.8508 14.4425 21.875 14.5644 21.875 14.6875C21.875 14.8106 21.8508 14.9325 21.8036 15.0463C21.7565 15.16 21.6875 15.2634 21.6004 15.3504C21.5134 15.4375 21.41 15.5065 21.2963 15.5536C21.1825 15.6008 21.0606 15.625 20.9375 15.625C20.6889 15.625 20.4504 15.5262 20.2746 15.3504C20.0988 15.1746 20 14.9361 20 14.6875C20 14.4389 20.0988 14.2004 20.2746 14.0246C20.4504 13.8488 20.6889 13.75 20.9375 13.75Z" fill="#713EA2"/>
</svg>
