<svg width="30" height="30" viewBox="0 0 30 30" fill="none" xmlns="http://www.w3.org/2000/svg">
<path d="M13.125 8.4375C13.8667 8.4375 14.5917 8.21757 15.2084 7.80551C15.8251 7.39346 16.3057 6.80779 16.5895 6.12256C16.8734 5.43734 16.9476 4.68334 16.8029 3.95591C16.6583 3.22848 16.3011 2.5603 15.7766 2.03585C15.2522 1.5114 14.584 1.15425 13.8566 1.00956C13.1292 0.864862 12.3752 0.939125 11.6899 1.22295C11.0047 1.50678 10.419 1.98743 10.007 2.60411C9.59493 3.2208 9.375 3.94582 9.375 4.6875C9.37609 5.68173 9.77152 6.63493 10.4745 7.33795C11.1776 8.04098 12.1308 8.43642 13.125 8.4375ZM13.125 2.8125C13.4958 2.8125 13.8584 2.92247 14.1667 3.1285C14.475 3.33452 14.7154 3.62736 14.8573 3.96997C14.9992 4.31258 15.0363 4.68958 14.964 5.0533C14.8916 5.41701 14.713 5.7511 14.4508 6.01333C14.1886 6.27555 13.8545 6.45413 13.4908 6.52647C13.1271 6.59882 12.7501 6.56169 12.4075 6.41978C12.0649 6.27786 11.772 6.03754 11.566 5.7292C11.36 5.42085 11.25 5.05834 11.25 4.6875C11.2506 4.19039 11.4483 3.7138 11.7998 3.36229C12.1513 3.01078 12.6279 2.81306 13.125 2.8125ZM20.7398 14.7287C19.8596 13.7385 18.6853 13.1081 17.0712 12.7655L15.6182 9.375H10.4369L8.90625 20.0896V23.4375H12.1875V29.0625H17.8125V23.4375H22.5V20.625C22.5 17.9899 21.9243 16.0613 20.7398 14.7287ZM20.625 21.5625H15.9375V27.1875H14.0625V21.5625H10.7812V20.2229L12.0631 11.25H14.3818L15.7465 14.4342L16.2521 14.5185C17.6876 14.7577 18.6681 15.2204 19.3383 15.9744C20.2041 16.9484 20.625 18.4696 20.625 20.625V21.5625Z" fill="#713EA2"/>
</svg>
