<svg width="30" height="30" viewBox="0 0 30 30" fill="none" xmlns="http://www.w3.org/2000/svg">
<g clip-path="url(#clip0_19_620)">
<path d="M21.4037 11.2875L15.3837 5.26749L5.15125 15.5C4.99289 15.6579 4.86724 15.8455 4.78151 16.0521C4.69579 16.2586 4.65166 16.4801 4.65166 16.7037C4.65166 16.9274 4.69579 17.1488 4.78151 17.3554C4.86724 17.562 4.99289 17.7496 5.15125 17.9075L8.36125 21.125C8.53542 21.2996 8.74233 21.4381 8.97012 21.5327C9.19791 21.6272 9.44212 21.6758 9.68875 21.6758C9.93537 21.6758 10.1796 21.6272 10.4074 21.5327C10.6352 21.4381 10.8421 21.2996 11.0162 21.125" stroke="#713EA2" stroke-width="1.875" stroke-linecap="round" stroke-linejoin="round"/>
<path d="M0.9375 25.7337L3.9475 22.7237M13.5787 3.46249L15.3838 5.26749M17.19 7.07374L21.4037 2.85999M23.8112 5.26749L19.5975 9.48124M19.5975 1.05374L25.6175 7.07374M21.5625 18.6337V24.2587M18.75 21.4462H24.375M5.7525 18.51L2.7425 21.52L5.15 23.9275L8.16 20.9175L5.7525 18.51ZM29.0625 19.5712C29.0665 21.7543 28.3253 23.8733 26.9616 25.578C25.5979 27.2827 23.6932 28.4709 21.5625 28.9462C19.4318 28.4709 17.5271 27.2827 16.1634 25.578C14.7997 23.8733 14.0585 21.7543 14.0625 19.5712V16.7587C14.0625 16.2615 14.26 15.7845 14.6117 15.4329C14.9633 15.0813 15.4402 14.8837 15.9375 14.8837H27.1875C27.6848 14.8837 28.1617 15.0813 28.5133 15.4329C28.865 15.7845 29.0625 16.2615 29.0625 16.7587V19.5712Z" stroke="#713EA2" stroke-width="1.875" stroke-linecap="round" stroke-linejoin="round"/>
</g>
<defs>
<clipPath id="clip0_19_620">
<rect width="30" height="30" fill="white"/>
</clipPath>
</defs>
</svg>
