<svg width="30" height="30" viewBox="0 0 30 30" fill="none" xmlns="http://www.w3.org/2000/svg">
<path fillRule="evenodd" clipRule="evenodd" d="M9.09917 7.27417C9.27474 7.44996 9.37335 7.68824 9.37335 7.93668C9.37335 8.18511 9.27474 8.42339 9.09917 8.59918L3.19917 14.4992H20.9367C21.1853 14.4992 21.4238 14.5979 21.5996 14.7738C21.7754 14.9496 21.8742 15.188 21.8742 15.4367C21.8742 15.6853 21.7754 15.9238 21.5996 16.0996C21.4238 16.2754 21.1853 16.3742 20.9367 16.3742H3.19917L9.09917 22.2742C9.19128 22.36 9.26516 22.4635 9.3164 22.5785C9.36764 22.6935 9.39519 22.8176 9.39742 22.9435C9.39964 23.0694 9.37648 23.1944 9.32933 23.3112C9.28218 23.4279 9.212 23.534 9.12297 23.623C9.03395 23.712 8.92791 23.7822 8.81117 23.8293C8.69444 23.8765 8.5694 23.8996 8.44352 23.8974C8.31764 23.8952 8.1935 23.8676 8.0785 23.8164C7.9635 23.7652 7.86 23.6913 7.77418 23.5992L0.274175 16.0992C0.098612 15.9234 0 15.6851 0 15.4367C0 15.1882 0.098612 14.95 0.274175 14.7742L7.77418 7.27417C7.94996 7.09861 8.18824 7 8.43668 7C8.68511 7 8.92339 7.09861 9.09917 7.27417Z" fill="white"/>
</svg>
