<svg width="28" height="28" viewBox="0 0 28 28" fill="none" xmlns="http://www.w3.org/2000/svg">
<path d="M14 17.75V21.5M26.5 14.255V16.1562C26.5 21.0312 26.5 23.47 25.035 24.985C23.57 26.5 21.2137 26.5 16.5 26.5H11.5C6.78625 26.5 4.42875 26.5 2.965 24.985C1.50125 23.47 1.5 21.0325 1.5 16.1562V14.255C1.5 11.3938 1.5 9.96375 2.15 8.77875C2.7975 7.5925 3.98375 6.8575 6.355 5.385L8.855 3.83375C11.3612 2.2775 12.615 1.5 14 1.5C15.385 1.5 16.6375 2.2775 19.145 3.83375L21.645 5.385C24.0162 6.8575 25.2025 7.5925 25.8513 8.77875" stroke="black" stroke-width="1.875" strokeLinecap="round"/>
</svg>
