<svg width="28" height="28" viewBox="0 0 28 28" fill="none" xmlns="http://www.w3.org/2000/svg">
<path d="M6.34375 14.7162C5.635 13.0625 5.25 11.3 5.25 9.64375C5.25 5.14625 9.1675 1.5 14 1.5C18.8325 1.5 22.75 5.14625 22.75 9.64375C22.75 14.1063 19.9575 19.3125 15.6 21.175C15.0939 21.3895 14.5497 21.5001 14 21.5001C13.4503 21.5001 12.9061 21.3895 12.4 21.175C11.0088 20.58 9.77625 19.6438 8.74375 18.5" stroke="black" stroke-width="1.875" strokeLinecap="round"/>
<path d="M16.5 10.25C16.5 10.913 16.2366 11.5489 15.7678 12.0178C15.2989 12.4866 14.663 12.75 14 12.75C13.337 12.75 12.7011 12.4866 12.2322 12.0178C11.7634 11.5489 11.5 10.913 11.5 10.25C11.5 9.58696 11.7634 8.95107 12.2322 8.48223C12.7011 8.01339 13.337 7.75 14 7.75C14.663 7.75 15.2989 8.01339 15.7678 8.48223C16.2366 8.95107 16.5 9.58696 16.5 10.25Z" stroke="black" stroke-width="1.875"/>
<path d="M25.2 18.375C26.0325 19.1275 26.5 19.9775 26.5 20.875C26.5 22.0313 25.725 23.1063 24.395 24M2.8 18.375C1.9675 19.1275 1.5 19.9775 1.5 20.875C1.5 23.9812 7.09625 26.5 14 26.5C16.0662 26.5 18.015 26.275 19.7325 25.875" stroke="black" stroke-width="1.875" strokeLinecap="round"/>
</svg>
