<svg width="40" height="40" viewBox="0 0 40 40" fill="none" xmlns="http://www.w3.org/2000/svg">
<path d="M28.6061 15.3039L20.7801 7.47791L7.47788 20.7802C7.27201 20.9854 7.10868 21.2294 6.99723 21.4979C6.88578 21.7664 6.82841 22.0543 6.82841 22.345C6.82841 22.6358 6.88578 22.9236 6.99723 23.1922C7.10868 23.4607 7.27201 23.7046 7.47788 23.9099L11.6509 28.0927C11.8773 28.3196 12.1463 28.4997 12.4424 28.6226C12.7386 28.7455 13.056 28.8088 13.3766 28.8088C13.6972 28.8088 14.0147 28.7455 14.3108 28.6226C14.607 28.4997 14.876 28.3196 15.1024 28.0927" stroke="white" stroke-width="2.5" strokeLinecap="round" strokeLinejoin="round"/>
<path d="M2 34.084L5.913 30.171M18.4336 5.13138L20.7801 7.47788M23.1282 9.826L28.6061 4.34813M31.7359 7.47788L26.258 12.9558M26.258 2L34.084 9.826M28.8125 24.854V32.1665M25.1562 28.5103H32.4688M8.2595 24.6931L4.3465 28.6061L7.47625 31.7359L11.3892 27.8229L8.2595 24.6931ZM38.5625 26.0728C38.5677 28.9107 37.6042 31.6655 35.8313 33.8816C34.0585 36.0976 31.5824 37.6423 28.8125 38.2603C26.0426 37.6423 23.5665 36.0976 21.7937 33.8816C20.0208 31.6655 19.0573 28.9107 19.0625 26.0728V22.4165C19.0625 21.77 19.3193 21.15 19.7764 20.6929C20.2335 20.2358 20.8535 19.979 21.5 19.979H36.125C36.7715 19.979 37.3915 20.2358 37.8486 20.6929C38.3057 21.15 38.5625 21.77 38.5625 22.4165V26.0728Z" stroke="white" stroke-width="2.5" strokeLinecap="round" strokeLinejoin="round"/>
<path d="M28.6061 15.3039L20.7801 7.47791L7.47788 20.7802C7.27201 20.9854 7.10868 21.2294 6.99723 21.4979C6.88578 21.7664 6.82841 22.0543 6.82841 22.345C6.82841 22.6358 6.88578 22.9236 6.99723 23.1922C7.10868 23.4607 7.27201 23.7046 7.47788 23.9099L11.6509 28.0927C11.8773 28.3196 12.1463 28.4997 12.4424 28.6226C12.7386 28.7455 13.056 28.8088 13.3766 28.8088C13.6972 28.8088 14.0147 28.7455 14.3108 28.6226C14.607 28.4997 14.876 28.3196 15.1024 28.0927" stroke="white" stroke-width="2.5" strokeLinecap="round" strokeLinejoin="round"/>
<path d="M2 34.084L5.913 30.171M18.4336 5.13138L20.7801 7.47788M23.1283 9.826L28.6061 4.34813M31.7359 7.47788L26.258 12.9558M26.258 2L34.084 9.826M28.8125 24.854V32.1665M25.1563 28.5103H32.4688M8.2595 24.6931L4.3465 28.6061L7.47625 31.7359L11.3893 27.8229L8.2595 24.6931ZM38.5625 26.0728C38.5677 28.9107 37.6042 31.6655 35.8313 33.8816C34.0585 36.0976 31.5824 37.6423 28.8125 38.2603C26.0426 37.6423 23.5665 36.0976 21.7937 33.8816C20.0208 31.6655 19.0573 28.9107 19.0625 26.0728V22.4165C19.0625 21.77 19.3193 21.15 19.7764 20.6929C20.2335 20.2358 20.8535 19.979 21.5 19.979H36.125C36.7715 19.979 37.3915 20.2358 37.8486 20.6929C38.3057 21.15 38.5625 21.77 38.5625 22.4165V26.0728Z" stroke="white" stroke-width="2.5" strokeLinecap="round" strokeLinejoin="round"/>
</svg>
